# Blender v2.78 (sub 0) OBJ File: 'Field.blend'
# www.blender.org
o Field_Cube.001
v 40.018398 0.000000 40.686520
v -42.578693 0.000000 40.686520
v 40.018398 0.000000 -41.313480
v -57.578693 0.000000 -41.313477
v 14.018394 0.000000 -41.313480
v 14.018394 0.000000 -32.313477
v 2.018394 0.000000 -32.313477
v 2.018394 0.000000 -41.313480
v 32.018394 0.000000 -41.313480
v 40.018398 0.000000 -32.313480
v -34.578693 0.000000 -41.313480
v -42.578701 0.000000 -32.313477
v 14.018394 0.000000 -31.713478
v 14.018394 0.500000 -41.313480
v 14.618393 0.000000 -41.313480
v 14.618395 0.000000 -31.713478
v 2.018394 0.000000 -31.713478
v 14.018394 0.500000 -32.313477
v 1.418394 0.000000 -31.713478
v 1.418393 0.000000 -41.313480
v -42.578690 0.000000 55.686520
v -57.578693 0.000000 40.686523
v 55.018398 0.000000 40.686516
v 40.018402 0.000000 55.686520
v 55.018398 0.000000 -41.313484
v 40.018394 0.000000 -56.313480
v -42.578697 0.000000 -56.313480
v -42.578693 0.000000 -41.313480
v -57.578693 0.000000 -56.313477
v -57.578690 0.000000 55.686520
v 55.018402 0.000000 55.686520
v 55.018394 0.000000 -56.313480
v -35.578693 0.000000 -41.313480
v -42.578701 0.000000 -33.313477
v 40.018398 0.000000 -33.313477
v 33.018394 0.000000 -41.313480
v -43.578693 0.000000 40.686523
v 41.018398 0.000000 40.686520
v 1.418393 19.500000 -41.313480
v 40.018398 20.000000 -32.313480
v -34.578693 20.000000 -41.313480
v -42.578701 20.000000 -32.313477
v -35.578693 20.000000 -41.313480
v -42.578701 20.000000 -33.313477
v 40.018398 20.000000 -33.313477
v 33.018394 20.000000 -41.313480
v 40.018398 4.500000 -33.313477
v 32.018394 20.000000 -42.313480
v 41.014832 4.500000 -33.313477
v 41.014832 0.000000 -33.313477
v -43.578693 20.000000 -32.313477
v -34.578693 20.000000 -42.313480
v -34.578693 0.000000 -42.313480
v -43.578693 0.000000 -32.313477
v 32.018394 0.000000 -42.313480
v 41.018398 0.000000 -32.313480
v 40.018398 4.500000 40.686520
v 40.018398 4.500000 -32.313480
v 41.018398 4.500000 40.686520
v 41.018398 4.500000 -32.313480
v -42.578693 4.500000 40.686520
v -42.578701 4.500000 -32.313477
v -43.578693 4.500000 40.686523
v -43.578693 4.500000 -32.313477
v 32.018394 8.000000 -42.313480
v 14.018394 8.000000 -42.313480
v 14.018394 0.000000 -42.313480
v 31.518394 8.000000 -42.313480
v 31.518394 20.000000 -42.313480
v 31.518394 19.500000 -42.313480
v 14.018395 20.000000 -42.313480
v 14.018395 19.500000 -42.313480
v 1.418392 8.000000 -42.313480
v -16.581610 8.000000 -42.313480
v 1.418392 20.000000 -42.313480
v 1.418392 19.500000 -42.313480
v -16.581610 19.500000 -42.313480
v -34.578686 8.000000 -42.313480
v -34.578682 19.500000 -42.313480
v -35.578693 0.000000 -42.313480
v -35.578693 20.000000 -42.313480
v -43.578693 0.000000 -33.313473
v -43.578693 20.000000 -33.313473
v 32.018394 8.000000 -41.313480
v -34.578693 8.000000 -41.313480
v 1.418393 8.000000 -41.313480
v 14.018394 8.000000 -41.313480
v 1.418393 20.000000 -41.313480
v 14.018394 20.000000 -41.313480
v 31.518394 8.000000 -41.313480
v 32.018394 20.000000 -41.313480
v 31.518394 20.000000 -41.313480
v 31.518394 19.500000 -41.313480
v 14.018395 19.500000 -41.313480
v -34.578682 19.500000 -41.313480
v -16.581610 8.000000 -41.313480
v -16.581610 19.500000 -41.313480
v -15.581607 8.000000 -41.313480
v -15.581607 8.000000 -42.313480
v -15.581607 19.500000 -41.313480
v -15.581607 19.500000 -42.313480
v 2.018394 0.500000 -32.313477
v 2.018394 0.500000 -41.313480
v 14.018394 0.500000 -31.713478
v 14.618393 0.500000 -41.313480
v 14.618395 0.500000 -31.713478
v 2.018394 0.500000 -31.713478
v 1.418394 0.500000 -31.713478
v 1.418393 0.500000 -41.313480
vt 0.0000 0.0000
vt 0.0000 0.0000
vt 0.0000 0.0000
vt 0.0000 0.0000
vt 0.0000 0.0000
vt 0.0000 0.0000
vt 0.0000 0.0000
vt 0.0000 0.0000
vt 0.0000 0.0000
vt 0.0000 0.0000
vt 0.0000 0.0000
vt 0.0000 0.0000
vt 0.0000 0.0000
vt 0.0000 0.0000
vt 0.0000 0.0000
vt 0.0000 0.0000
vt 0.0000 0.0000
vt 0.0000 0.0000
vt 0.0000 0.0000
vt 0.0000 0.0000
vt 0.0000 0.0000
vt 0.0000 0.0000
vt 0.0000 0.0000
vt 0.0000 0.0000
vt 0.0000 0.0000
vt 0.0000 0.0000
vt 0.0000 0.0000
vt 0.0000 0.0000
vt 0.0000 0.0000
vt 0.0000 0.0000
vt 0.0000 0.0000
vt 0.0000 0.0000
vt 0.0000 0.0000
vt 0.0000 0.0000
vt 0.0000 0.0000
vt 0.0000 0.0000
vt 0.0000 0.0000
vt 0.0000 0.0000
vt 0.0000 0.0000
vt 0.0000 0.0000
vt 0.0000 0.0000
vt 0.0000 0.0000
vt 0.0000 0.0000
vt 0.0000 0.0000
vt 0.0000 0.0000
vt 0.0000 0.0000
vt 0.0000 0.0000
vt 0.0000 0.0000
vt 0.0000 0.0000
vt 0.0000 0.0000
vt 0.0000 0.0000
vt 0.0000 0.0000
vt 0.0000 0.0000
vt 0.0000 0.0000
vt 0.0000 0.0000
vt 0.0000 0.0000
vt 0.0000 0.0000
vt 0.0000 0.0000
vt 0.0000 0.0000
vt 0.0000 0.0000
vt 0.0000 0.0000
vt 0.0000 0.0000
vt 0.0000 0.0000
vt 0.0000 0.0000
vt 0.0000 0.0000
vt 0.0000 0.0000
vt 0.0000 0.0000
vt 0.0000 0.0000
vt 0.0000 0.0000
vt 0.0000 0.0000
vt 0.0000 0.0000
vt 0.0000 0.0000
vt 0.0000 0.0000
vt 0.0000 0.0000
vt 0.0000 0.0000
vt 0.0000 0.0000
vt 0.0000 0.0000
vt 0.0000 0.0000
vt 0.0000 0.0000
vt 0.0000 0.0000
vt 0.0000 0.0000
vt 0.0000 0.0000
vt 0.0000 0.0000
vt 0.0000 0.0000
vt 0.0000 0.0000
vt 0.0000 0.0000
vt 0.0000 0.0000
vt 0.0000 0.0000
vt 0.0000 0.0000
vt 0.0000 0.0000
vt 0.0000 0.0000
vt 0.0000 0.0000
vt 0.0000 0.0000
vt 0.0000 0.0000
vt 0.0000 0.0000
vn 0.0000 1.0000 0.0000
vn -1.0000 0.0000 0.0000
vn -0.7526 0.0000 -0.6585
vn 1.0000 0.0000 0.0000
vn 0.0000 0.0000 -1.0000
vn -0.7474 0.0000 0.6644
vn 0.7526 0.0000 -0.6585
vn 0.7474 0.0000 0.6644
vn 1.0000 0.0000 -0.0036
vn 0.0000 0.0000 1.0000
vn 0.0000 -1.0000 0.0000
s off
f 58/1/1 49/2/1 47/3/1
f 81/4/1 41/5/1 52/6/1
f 42/7/2 34/8/2 12/9/2
f 91/10/1 45/11/1 46/12/1
f 34/8/3 43/13/3 33/14/3
f 41/5/1 44/15/1 42/7/1
f 35/16/4 40/17/4 10/18/4
f 91/10/5 36/19/5 9/20/5
f 10/18/6 91/10/6 9/20/6
f 36/19/7 45/11/7 35/16/7
f 50/21/5 47/3/5 49/2/5
f 41/5/8 12/9/8 11/22/8
f 56/23/9 49/2/9 60/24/9
f 1/25/5 59/26/5 38/27/5
f 58/1/5 56/23/5 10/18/5
f 56/23/4 59/26/4 38/27/4
f 57/28/2 10/18/2 1/25/2
f 2/29/10 63/30/10 37/31/10
f 63/30/2 54/32/2 37/31/2
f 12/9/4 61/33/4 2/29/4
f 54/32/5 62/34/5 12/9/5
f 57/28/1 60/24/1 58/1/1
f 61/33/1 64/35/1 63/30/1
f 65/36/5 69/37/5 48/38/5
f 52/6/1 91/10/1 48/38/1
f 71/39/5 73/40/5 75/41/5
f 9/20/4 48/38/4 91/10/4
f 11/22/4 52/6/4 41/5/4
f 67/42/5 65/36/5 55/43/5
f 72/44/5 69/37/5 70/45/5
f 67/42/5 78/46/5 66/47/5
f 33/14/2 81/4/2 80/48/2
f 53/49/5 81/4/5 52/6/5
f 83/50/2 54/32/2 51/51/2
f 83/50/5 34/8/5 82/52/5
f 42/7/1 83/50/1 51/51/1
f 42/7/10 54/32/10 12/9/10
f 85/53/10 9/20/10 84/54/10
f 86/55/10 89/56/10 88/57/10
f 73/40/2 88/57/2 75/41/2
f 89/56/4 66/47/4 71/39/4
f 86/55/1 78/46/1 85/53/1
f 87/58/1 65/36/1 66/47/1
f 91/10/10 90/59/10 84/54/10
f 70/45/2 90/59/2 93/60/2
f 70/45/11 94/61/11 72/44/11
f 92/62/10 94/61/10 93/60/10
f 88/57/10 95/63/10 39/64/10
f 96/65/10 100/66/10 97/67/10
f 101/68/5 74/69/5 77/70/5
f 101/68/4 98/71/4 99/72/4
f 96/65/2 77/70/2 74/69/2
f 79/73/5 75/41/5 76/74/5
f 79/73/11 39/64/11 95/63/11
f 105/75/4 16/76/4 15/77/4
f 108/78/2 20/79/2 19/80/2
f 7/81/5 18/82/5 6/83/5
f 107/84/10 19/80/10 17/85/10
f 17/85/2 102/86/2 7/81/2
f 8/87/4 102/86/4 7/81/4
f 104/88/10 17/85/10 13/89/10
f 13/89/2 18/82/2 6/83/2
f 16/76/10 104/88/10 13/89/10
f 6/83/2 14/90/2 5/91/2
f 107/84/1 109/92/1 108/78/1
f 107/84/1 18/82/1 102/86/1
f 105/75/1 104/88/1 106/93/1
f 58/1/1 60/24/1 49/2/1
f 81/4/1 43/13/1 41/5/1
f 42/7/2 44/15/2 34/8/2
f 91/10/1 40/17/1 45/11/1
f 34/8/3 44/15/3 43/13/3
f 41/5/1 43/13/1 44/15/1
f 35/16/4 45/11/4 40/17/4
f 91/10/5 46/12/5 36/19/5
f 10/18/6 40/17/6 91/10/6
f 36/19/7 46/12/7 45/11/7
f 50/21/5 35/16/5 47/3/5
f 41/5/8 42/7/8 12/9/8
f 56/23/9 50/21/9 49/2/9
f 1/25/5 57/28/5 59/26/5
f 58/1/5 60/24/5 56/23/5
f 56/23/4 60/24/4 59/26/4
f 57/28/2 58/1/2 10/18/2
f 2/29/10 61/33/10 63/30/10
f 63/30/2 64/35/2 54/32/2
f 12/9/4 62/34/4 61/33/4
f 54/32/5 64/35/5 62/34/5
f 57/28/1 59/26/1 60/24/1
f 61/33/1 62/34/1 64/35/1
f 65/36/5 68/94/5 69/37/5
f 52/6/1 41/5/1 91/10/1
f 71/39/5 66/47/5 73/40/5
f 9/20/4 55/43/4 48/38/4
f 11/22/4 53/49/4 52/6/4
f 67/42/5 66/47/5 65/36/5
f 72/44/5 71/39/5 69/37/5
f 67/42/5 53/49/5 78/46/5
f 33/14/2 43/13/2 81/4/2
f 53/49/5 80/48/5 81/4/5
f 83/50/2 82/52/2 54/32/2
f 83/50/5 44/15/5 34/8/5
f 42/7/1 44/15/1 83/50/1
f 42/7/10 51/51/10 54/32/10
f 85/53/10 11/22/10 9/20/10
f 86/55/10 87/58/10 89/56/10
f 73/40/2 86/55/2 88/57/2
f 89/56/4 87/58/4 66/47/4
f 86/55/1 73/40/1 78/46/1
f 87/58/1 84/54/1 65/36/1
f 91/10/10 92/62/10 90/59/10
f 70/45/2 68/94/2 90/59/2
f 70/45/11 93/60/11 94/61/11
f 92/62/10 89/56/10 94/61/10
f 88/57/10 41/5/10 95/63/10
f 96/65/10 98/71/10 100/66/10
f 101/68/5 99/72/5 74/69/5
f 101/68/4 100/66/4 98/71/4
f 96/65/2 97/67/2 77/70/2
f 79/73/5 52/6/5 75/41/5
f 79/73/11 76/74/11 39/64/11
f 105/75/4 106/93/4 16/76/4
f 108/78/2 109/92/2 20/79/2
f 7/81/5 102/86/5 18/82/5
f 107/84/10 108/78/10 19/80/10
f 17/85/2 107/84/2 102/86/2
f 8/87/4 103/95/4 102/86/4
f 104/88/10 107/84/10 17/85/10
f 13/89/2 104/88/2 18/82/2
f 16/76/10 106/93/10 104/88/10
f 6/83/2 18/82/2 14/90/2
f 107/84/1 103/95/1 109/92/1
f 107/84/1 104/88/1 18/82/1
f 105/75/1 14/90/1 104/88/1
l 22 30
l 4 22
l 4 29
l 21 2
l 2 22
l 23 1
l 1 24
l 3 25
l 3 26
l 27 29
l 28 4
l 28 27
l 21 30
l 21 24
l 23 25
l 23 31
l 24 31
l 25 32
l 26 32
l 26 27
