# Blender v2.78 (sub 0) OBJ File: 'Field.blend'
# www.blender.org
o Field_Cube.001
v 40.018398 0.000000 40.686520
v -39.981602 0.000000 40.686520
v 40.018398 0.000000 -41.313480
v -39.981602 0.000000 -41.313480
v 40.018398 10.000000 -41.313480
v -39.981602 10.000000 -41.313480
v -39.981602 10.000000 40.686516
v 40.018398 10.000000 40.686516
v -39.981602 29.918272 40.686516
v 40.018398 29.918272 40.686516
v -39.981602 29.918272 -41.313480
v 40.018398 29.918272 -41.313480
v 14.018394 0.000000 -41.313480
v 14.018394 0.000000 -32.313477
v 2.018394 0.000000 -32.313477
v 2.018394 0.000000 -41.313480
v 32.018394 0.000000 -41.313480
v 40.018398 0.000000 -32.313480
v -31.981604 0.000000 -41.313480
v -39.981606 0.000000 -32.313477
v 14.018394 0.000000 -31.713478
v 14.618394 0.000000 -32.313477
v 14.618393 0.000000 -41.313480
v 14.618395 0.000000 -31.713478
v 2.018394 0.000000 -31.713478
v 1.418394 0.000000 -32.313477
v 1.418394 0.000000 -31.713478
v 1.418393 0.000000 -41.313480
v 14.018394 3.209883 -41.313480
v 14.018394 3.209883 -32.313477
v 2.018394 3.209883 -32.313477
v 2.018394 3.209883 -41.313480
v 14.018394 3.209883 -31.713478
v 14.618394 3.209883 -32.313477
v 14.618393 3.209883 -41.313480
v 14.618395 3.209883 -31.713478
v 2.018394 3.209883 -31.713478
v 1.418394 3.209883 -32.313477
v 1.418394 3.209883 -31.713478
v 1.418393 3.209883 -41.313480
vt 0.2007 0.9999
vt 0.2676 0.0001
vt 0.2676 0.9999
vt 0.0669 0.3343
vt 0.0001 0.0001
vt 0.0669 0.0001
vt 0.1337 0.3343
vt 0.1337 0.0001
vt 0.2006 0.0001
vt 0.1337 0.9999
vt 0.0000 0.0000
vt 0.0000 0.0000
vt 0.0000 0.0000
vt 0.0000 0.0000
vt 0.0000 0.0000
vt 0.0000 0.0000
vt 0.0000 0.0000
vt 0.0000 0.0000
vt 0.0000 0.0000
vt 0.0000 0.0000
vt 0.0000 0.0000
vt 0.0000 0.0000
vt 0.0000 0.0000
vt 0.0000 0.0000
vt 0.0000 0.0000
vt 0.0000 0.0000
vt 0.0000 0.0000
vt 0.0000 0.0000
vt 0.0000 0.0000
vt 0.0000 0.0000
vt 0.2007 0.0001
vt 0.0001 0.3343
vt 0.2006 0.3343
vt 0.0669 0.9999
vt 0.0000 0.0000
vt 0.0000 0.0000
vt 0.0000 0.0000
vt 0.0000 0.0000
vn 0.0000 0.0000 -1.0000
vn -1.0000 -0.0000 0.0000
vn 0.0000 0.0000 1.0000
vn 1.0000 -0.0000 0.0000
s off
f 12/1/1 4/2/1 11/3/1
f 7/4/2 4/5/2 2/6/2
f 8/7/3 2/6/3 1/8/3
f 3/9/4 8/7/4 1/8/4
f 10/10/3 7/4/3 8/7/3
f 28/11/4 38/12/4 26/13/4
f 24/14/2 34/15/2 22/16/2
f 25/17/2 31/18/2 15/19/2
f 26/13/1 31/18/1 15/19/1
f 21/20/2 30/21/2 14/22/2
f 14/22/2 29/23/2 13/24/2
f 27/25/2 38/12/2 26/13/2
f 15/19/1 30/21/1 14/22/1
f 27/25/1 37/26/1 25/17/1
f 22/16/3 30/21/3 14/22/3
f 16/27/4 31/18/4 15/19/4
f 25/17/1 33/28/1 21/20/1
f 23/29/4 34/15/4 22/16/4
f 28/11/1 32/30/1 16/27/1
f 24/14/3 33/28/3 21/20/3
f 12/1/1 3/31/1 4/2/1
f 7/4/2 6/32/2 4/5/2
f 8/7/3 7/4/3 2/6/3
f 3/9/4 5/33/4 8/7/4
f 10/10/3 9/34/3 7/4/3
f 28/11/4 40/35/4 38/12/4
f 24/14/2 36/36/2 34/15/2
f 25/17/2 37/26/2 31/18/2
f 26/13/1 38/12/1 31/18/1
f 21/20/2 33/28/2 30/21/2
f 14/22/2 30/21/2 29/23/2
f 27/25/2 39/37/2 38/12/2
f 15/19/1 31/18/1 30/21/1
f 27/25/1 39/37/1 37/26/1
f 22/16/3 34/15/3 30/21/3
f 16/27/4 32/30/4 31/18/4
f 25/17/1 37/26/1 33/28/1
f 23/29/4 35/38/4 34/15/4
f 28/11/1 40/35/1 32/30/1
f 24/14/3 36/36/3 33/28/3
l 5 6
l 6 11
l 5 12
l 3 13
l 13 17
l 3 18
l 17 18
l 4 19
l 19 20
