# Blender v2.78 (sub 0) OBJ File: 'Switch.blend'
# www.blender.org
o Cube
v -19.999989 0.010000 -6.999996
v 19.999990 0.010000 -6.999997
v 19.999989 0.010000 6.999996
v -19.999998 0.010000 6.999995
v -19.999981 4.010000 -7.000000
v 20.000002 4.010000 -6.999992
v 19.999985 4.010000 6.999998
v -19.999990 4.010000 6.999997
v -8.499997 0.010000 -6.999997
v -8.500005 0.010000 6.999997
v -8.499988 4.010000 -6.999996
v -8.500002 4.010000 6.999997
v 8.500000 0.010000 -6.999997
v 8.500011 4.010000 -6.999996
v 8.499997 0.010000 6.999996
v 8.499995 4.010000 6.999998
v -19.999992 0.010000 6.500000
v 19.999990 0.010000 6.499999
v -19.999987 4.010000 6.499998
v 19.999992 4.010000 6.500002
v -8.499994 4.010000 6.500001
v -8.500000 0.010000 6.500000
v 8.500002 4.010000 6.500001
v 8.499999 0.010000 6.499999
v 19.500000 0.010000 -6.999998
v 19.500011 4.010000 -6.999994
v 19.500000 0.010000 6.999996
v 19.499992 4.010000 6.999998
v 19.500004 4.010000 6.500004
v 19.500000 0.010000 6.499999
v -8.499991 4.010000 -6.500000
v 8.500007 4.010000 -6.499999
v -19.999990 0.010000 -6.500000
v 19.999989 0.010000 -6.500001
v -19.999985 4.010000 -6.500002
v 19.999998 4.010000 -6.499998
v -8.499998 0.010000 -6.500001
v 8.499999 0.010000 -6.500001
v 19.499998 0.010000 -6.500002
v 19.500006 4.010000 -6.499997
v -19.500008 0.010000 6.999995
v -19.500004 4.010000 6.999996
v -19.500002 0.010000 -6.999997
v -19.499990 4.010000 -7.000000
v -19.500004 0.010000 6.499998
v -19.499996 4.010000 6.500000
v -19.499994 4.010000 -6.500002
v -19.500002 0.010000 -6.500000
v -8.500000 2.010000 6.500000
v -8.499998 2.010000 -6.500001
v -19.500004 2.010000 6.499998
v -19.500002 2.010000 -6.500000
v 8.499999 2.010000 6.499999
v 19.500000 2.010000 6.499999
v 8.499999 2.010000 -6.500001
v 19.499998 2.010000 -6.500002
v 7.999996 3.655394 1.999998
v 7.999996 3.655394 -2.000002
v -8.000002 3.655394 1.999998
v -8.000002 3.655394 -2.000002
v -8.000001 0.010000 -2.000002
v -8.000002 0.010000 1.999998
v 7.999996 0.010000 -2.000002
v 7.999996 0.010000 1.999998
v 7.999995 3.655394 0.999998
v -8.000002 3.655394 0.999998
v 7.999996 3.655394 -1.000002
v -8.000002 3.655394 -1.000003
v 7.999995 0.010000 0.999998
v -8.000002 0.010000 0.999998
v 7.999996 0.010000 -1.000002
v -8.000002 0.010000 -1.000003
v 7.999994 3.655394 6.500001
v 7.999994 0.010000 6.500001
v 7.999996 3.655394 -6.500000
v 7.999996 0.010000 -6.500000
v 8.499999 3.655394 -6.500001
v 8.499999 3.655394 6.499999
v -8.000002 3.655394 6.499999
v -8.000002 0.010000 6.499999
v -8.000002 3.655394 -6.499999
v -8.000002 0.010000 -6.500000
v -8.499998 3.655394 -6.500001
v -8.500000 3.655394 6.500000
vt 0.4247 0.2815
vt 0.4247 0.2807
vt 0.4246 0.2802
vt 0.4171 0.2616
vt 0.4150 0.2590
vt 0.4152 0.2606
vt 0.4160 0.3137
vt 0.4250 0.2925
vt 0.4248 0.2925
vt 0.4252 0.2819
vt 0.4458 0.2562
vt 0.4364 0.2775
vt 0.4365 0.2775
vt 0.4361 0.2780
vt 0.4461 0.2564
vt 0.4475 0.2553
vt 0.4287 0.2794
vt 0.4368 0.2581
vt 0.4330 0.2782
vt 0.4471 0.3127
vt 0.4326 0.2907
vt 0.4366 0.2898
vt 0.4468 0.2525
vt 0.4366 0.2565
vt 0.4364 0.2782
vt 0.4143 0.2575
vt 0.4241 0.2594
vt 0.4245 0.2585
vt 0.4328 0.2789
vt 0.4325 0.2899
vt 0.4287 0.2801
vt 0.4285 0.2912
vt 0.4343 0.2840
vt 0.4365 0.2885
vt 0.0002 0.5699
vt 0.4443 0.3086
vt 0.4144 0.3145
vt 0.4253 0.2921
vt 0.4151 0.3171
vt 0.4250 0.2919
vt 0.4267 0.2872
vt 0.4247 0.3116
vt 0.4283 0.2919
vt 0.4157 0.3135
vt 0.4365 0.2893
vt 0.4461 0.3099
vt 0.4461 0.3113
vt 0.4362 0.3115
vt 0.4371 0.3110
vt 0.4248 0.3131
vt 0.4360 0.2881
vt 0.4345 0.2828
vt 0.4343 0.2838
vt 0.4346 0.2829
vt 0.4270 0.2863
vt 0.4268 0.2873
vt 0.4270 0.2861
vt 0.3661 0.8237
vt 0.1901 0.7465
vt 0.3661 0.7465
vt 0.0002 0.7465
vt 0.1763 0.8237
vt 0.0002 0.8237
vt 0.1901 0.8237
vt 0.1763 0.9998
vt 0.1901 0.9998
vt 0.1763 0.5704
vt 0.1901 0.5704
vt 0.5564 0.7465
vt 0.5426 0.5704
vt 0.5564 0.5704
vt 0.5426 0.7465
vt 0.3666 0.8237
vt 0.3666 0.7465
vt 0.7325 0.8237
vt 0.7325 0.7465
vt 0.5426 0.8237
vt 0.5564 0.9998
vt 0.5426 0.9998
vt 0.8625 0.0011
vt 0.2255 0.0002
vt 0.6359 0.5699
vt 0.9250 0.0002
vt 0.8629 0.1763
vt 0.8629 0.0002
vt 0.9338 0.6531
vt 0.9062 0.8291
vt 0.9062 0.6531
vt 0.9250 0.5293
vt 0.8629 0.3532
vt 0.9250 0.3532
vt 0.9115 0.5704
vt 0.7329 0.6495
vt 0.7329 0.5704
vt 0.9115 0.6526
vt 0.9115 0.6495
vt 0.8782 0.8291
vt 0.9058 0.6531
vt 0.9058 0.8291
vt 0.8156 0.8291
vt 0.8777 0.6531
vt 0.8777 0.8291
vt 0.9250 0.1767
vt 0.8629 0.3528
vt 0.8629 0.1767
vt 0.8152 0.8317
vt 0.7361 0.6531
vt 0.8152 0.6531
vt 0.7329 0.8317
vt 0.7361 0.8317
vt 0.1763 0.7465
vt 0.5564 0.8237
vt 0.9250 0.1763
vt 0.9338 0.8291
vt 0.8629 0.5293
vt 0.7329 0.6526
vt 0.8782 0.6531
vt 0.8156 0.6531
vt 0.9250 0.3528
vt 0.7329 0.6531
vn 0.0000 -1.0000 0.0000
vn 0.0000 1.0000 0.0000
vn 0.0000 0.0000 -1.0000
vn 1.0000 -0.0000 0.0000
vn 0.0000 -0.0000 1.0000
vn -1.0000 0.0000 -0.0000
s off
f 30/1/1 3/2/1 27/3/1
f 29/4/2 7/5/2 20/6/2
f 26/7/3 2/8/3 25/9/3
f 20/6/4 3/2/4 18/10/4
f 42/11/5 4/12/5 41/13/5
f 17/14/6 8/15/6 19/16/6
f 15/17/5 12/18/5 10/19/5
f 44/20/3 9/21/3 43/22/3
f 46/23/2 12/18/2 21/24/2
f 45/25/1 10/19/1 41/13/1
f 28/26/5 15/17/5 27/3/5
f 21/24/2 16/27/2 23/28/2
f 22/29/1 15/17/1 10/19/1
f 37/30/2 24/31/2 38/32/2
f 37/30/5 52/33/5 48/34/5
f 45/35/4 47/36/4 46/23/4
f 36/37/4 18/10/4 34/38/4
f 40/39/2 20/6/2 36/37/2
f 34/38/1 30/1/1 39/40/1
f 30/1/6 56/41/6 39/40/6
f 7/5/5 27/3/5 3/2/5
f 14/42/3 25/9/3 13/43/3
f 23/28/2 28/26/2 29/4/2
f 24/31/1 27/3/1 15/17/1
f 14/42/2 40/39/2 26/7/2
f 13/43/1 39/40/1 38/32/1
f 25/9/1 34/38/1 39/40/1
f 26/7/2 36/37/2 6/44/2
f 6/44/4 34/38/4 2/8/4
f 1/45/6 35/46/6 5/47/6
f 44/20/2 31/48/2 11/49/2
f 43/22/1 37/30/1 48/34/1
f 11/49/2 32/50/2 14/42/2
f 37/30/2 13/43/2 9/21/2
f 1/45/1 48/34/1 33/51/1
f 5/47/2 47/36/2 44/20/2
f 19/16/2 47/36/2 35/46/2
f 33/51/1 45/25/1 17/14/1
f 17/14/1 41/13/1 4/12/1
f 19/16/2 42/11/2 46/23/2
f 5/47/3 43/22/3 1/45/3
f 10/19/5 42/11/5 41/13/5
f 52/33/2 49/52/2 50/53/2
f 50/53/4 22/29/4 37/30/4
f 45/25/3 49/52/3 22/29/3
f 48/34/4 51/54/4 45/25/4
f 53/55/2 56/41/2 55/56/2
f 53/55/6 38/32/6 24/31/6
f 39/40/5 55/56/5 38/32/5
f 24/31/3 54/57/3 30/1/3
f 64/58/5 59/59/5 62/60/5
f 70/61/3 65/62/3 69/63/3
f 65/62/2 59/59/2 57/64/2
f 69/65/4 57/64/4 64/66/4
f 59/59/6 70/67/6 62/68/6
f 58/69/4 71/70/4 63/71/4
f 67/72/5 72/73/5 71/74/5
f 61/75/3 58/69/3 63/76/3
f 58/69/2 68/77/2 67/72/2
f 68/77/6 61/78/6 72/79/6
f 39/80/5 47/36/5 48/81/5
f 11/49/3 13/43/3 9/21/3
f 40/39/6 30/82/6 29/4/6
f 30/82/3 46/23/3 29/4/3
f 19/16/6 33/51/6 17/14/6
f 74/83/6 57/84/6 64/85/6
f 69/86/6 67/87/6 71/88/6
f 58/89/6 76/90/6 63/91/6
f 55/92/4 78/93/4 53/94/4
f 75/95/2 78/93/2 77/96/2
f 66/97/4 72/98/4 68/99/4
f 79/100/4 62/101/4 59/102/4
f 82/103/4 60/104/4 61/105/4
f 49/106/6 83/107/6 50/108/6
f 79/109/2 83/107/2 84/110/2
f 30/1/1 18/10/1 3/2/1
f 29/4/2 28/26/2 7/5/2
f 26/7/3 6/44/3 2/8/3
f 20/6/4 7/5/4 3/2/4
f 42/11/5 8/15/5 4/12/5
f 17/14/6 4/12/6 8/15/6
f 15/17/5 16/27/5 12/18/5
f 44/20/3 11/49/3 9/21/3
f 46/23/2 42/11/2 12/18/2
f 45/25/1 22/29/1 10/19/1
f 28/26/5 16/27/5 15/17/5
f 21/24/2 12/18/2 16/27/2
f 22/29/1 24/31/1 15/17/1
f 37/30/2 22/29/2 24/31/2
f 37/30/5 50/53/5 52/33/5
f 45/35/4 48/81/4 47/36/4
f 36/37/4 20/6/4 18/10/4
f 40/39/2 29/4/2 20/6/2
f 34/38/1 18/10/1 30/1/1
f 30/1/6 54/57/6 56/41/6
f 7/5/5 28/26/5 27/3/5
f 14/42/3 26/7/3 25/9/3
f 23/28/2 16/27/2 28/26/2
f 24/31/1 30/1/1 27/3/1
f 14/42/2 32/50/2 40/39/2
f 13/43/1 25/9/1 39/40/1
f 25/9/1 2/8/1 34/38/1
f 26/7/2 40/39/2 36/37/2
f 6/44/4 36/37/4 34/38/4
f 1/45/6 33/51/6 35/46/6
f 44/20/2 47/36/2 31/48/2
f 43/22/1 9/21/1 37/30/1
f 11/49/2 31/48/2 32/50/2
f 37/30/2 38/32/2 13/43/2
f 1/45/1 43/22/1 48/34/1
f 5/47/2 35/46/2 47/36/2
f 19/16/2 46/23/2 47/36/2
f 33/51/1 48/34/1 45/25/1
f 17/14/1 45/25/1 41/13/1
f 19/16/2 8/15/2 42/11/2
f 5/47/3 44/20/3 43/22/3
f 10/19/5 12/18/5 42/11/5
f 52/33/2 51/54/2 49/52/2
f 50/53/4 49/52/4 22/29/4
f 45/25/3 51/54/3 49/52/3
f 48/34/4 52/33/4 51/54/4
f 53/55/2 54/57/2 56/41/2
f 53/55/6 55/56/6 38/32/6
f 39/40/5 56/41/5 55/56/5
f 24/31/3 53/55/3 54/57/3
f 64/58/5 57/64/5 59/59/5
f 70/61/3 66/111/3 65/62/3
f 65/62/2 66/111/2 59/59/2
f 69/65/4 65/62/4 57/64/4
f 59/59/6 66/111/6 70/67/6
f 58/69/4 67/72/4 71/70/4
f 67/72/5 68/77/5 72/73/5
f 61/75/3 60/112/3 58/69/3
f 58/69/2 60/112/2 68/77/2
f 68/77/6 60/112/6 61/78/6
f 39/80/5 40/39/5 47/36/5
f 11/49/3 14/42/3 13/43/3
f 40/39/6 39/80/6 30/82/6
f 30/82/3 45/35/3 46/23/3
f 19/16/6 35/46/6 33/51/6
f 74/83/6 73/113/6 57/84/6
f 69/86/6 65/114/6 67/87/6
f 58/89/6 75/115/6 76/90/6
f 55/92/4 77/96/4 78/93/4
f 75/95/2 73/116/2 78/93/2
f 66/97/4 70/117/4 72/98/4
f 79/100/4 80/118/4 62/101/4
f 82/103/4 81/119/4 60/104/4
f 49/106/6 84/110/6 83/107/6
f 79/109/2 81/120/2 83/107/2
